# xmcd
#
# Track frame offsets:
#	225
#	14925
#	28231
#	42356
#	54698
#	96030
#	105674
#	113211
#	123548
#	137641
#	151187
#	167635
#	180394
#	205797
#	224022
#	236356
#	249181
#	261949
#
# Disc length: 3719
#
# Revision: 2
# Processed by: cddbd v1.5.1PL0 Copyright (c) Steve Scherf et al.
# Submitted via: audiograbber 1.82.02
# Normalized: r1:DSETVAR2,TDELIM( - )
#
DISCID=000e8412
DTITLE=Various Artist - John Denver And Friends [CD1]
DYEAR=1900
DGENRE=Country
TTITLE0=John Denver - Take Me Home, Country Roads
TTITLE1=Don Williams - Where Do I Go From Here
TTITLE2=John Denver - Annies Song
TTITLE3=Anne Murray - All Time
TTITLE4=John Denver - The Foxfire Suite
TTITLE5=Charley Pride - Kiss An Angel Good Morning
TTITLE6=John Denver - Deal With The Ladies
TTITLE7=Loretta Lynn - You're Looking At Country
TTITLE8=John Denver - Ancient Rhymes
TTITLE9=George Jones - Almost Persuaded
TTITLE10=John Denver - Falling Leares
TTITLE11=Kenny Rogers - Reuben James
TTITLE12=John Denver - Amazon (Let This Be A Voice)
TTITLE13=Bobby Bare - The Jogger
TTITLE14=John Denver - Alaska And Me
TTITLE15=Willie Nelson - To All The Girls I've Loved Before
TTITLE16=Charley Pride - Chrystal Chandeliers
TTITLE17=John Denver - Country Girl In Paris
EXTD=
EXTT0=
EXTT1=
EXTT2=
EXTT3=
EXTT4=
EXTT5=
EXTT6=
EXTT7=
EXTT8=
EXTT9=
EXTT10=
EXTT11=
EXTT12=
EXTT13=
EXTT14=
EXTT15=
EXTT16=
EXTT17=
PLAYORDER=
